<svg xmlns="http://www.w3.org/2000/svg" xmlns:xlink="http://www.w3.org/1999/xlink" viewBox="0,0,255.98956,255.98956" width="100px" height="100px" fill-rule="nonzero"><g fill="#686767" fill-rule="nonzero" stroke="none" stroke-width="1" stroke-linecap="butt" stroke-linejoin="miter" stroke-miterlimit="10" stroke-dasharray="" stroke-dashoffset="0" font-family="none" font-weight="none" font-size="none" text-anchor="none" style="mix-blend-mode: normal"><g transform="scale(5.33333,5.33333)"><path d="M29.521,42.601c9.252,-1.47 14.479,-7.085 14.479,-18.594c0,-11.516 -5.227,-17.131 -14.479,-18.601c-1.704,-0.273 -3.549,-0.406 -5.521,-0.406c-1.972,0 -3.817,0.133 -5.521,0.406c-9.245,1.47 -14.479,7.085 -14.479,18.601c0,11.509 5.234,17.124 14.479,18.594c1.704,0.273 3.549,0.399 5.521,0.399c1.972,0 3.817,-0.126 5.521,-0.399zM29.521,7.552c6.538,1.404 11.519,5.138 11.519,16.448c0,8.595 -2.722,12.523 -7.08,14.865l-1.96,-15.865l-6.483,-15.953c1.357,0.066 2.708,0.226 4.004,0.505zM23,7.013c0.254,-0.006 0.746,-0.013 1,-0.013c0.247,0 0.746,0.007 1,0.013v13.987l-1.976,0.022zM6.999,24c0,-11.31 4.942,-15.044 11.479,-16.448c1.297,-0.279 2.647,-0.439 4.004,-0.506l-6.482,15.954l-1.96,15.865c-4.358,-2.342 -7.041,-6.27 -7.041,-14.865zM18.479,40.455c-1.404,-0.306 -2.754,-0.745 -4.011,-1.364l8.532,-16.091h2l8.532,16.091c-1.257,0.619 -2.607,1.058 -4.011,1.364c-1.778,0.379 -3.649,0.538 -5.521,0.545c-1.872,-0.007 -3.743,-0.166 -5.521,-0.545z"></path></g></g></svg>