<svg xmlns="http://www.w3.org/2000/svg" xmlns:xlink="http://www.w3.org/1999/xlink" viewBox="0,0,255.98956,255.98956" width="100px" height="100px" fill-rule="nonzero"><g fill="#686767" fill-rule="nonzero" stroke="none" stroke-width="1" stroke-linecap="butt" stroke-linejoin="miter" stroke-miterlimit="10" stroke-dasharray="" stroke-dashoffset="0" font-family="none" font-weight="none" font-size="none" text-anchor="none" style="mix-blend-mode: normal"><g transform="scale(2.56,2.56)"><path d="M34,32.99219c-0.55226,0.00006 -0.99994,0.44774 -1,1v5h-21.75c-0.37523,-0.00042 -0.71911,0.20923 -0.89062,0.54297l-10.25,20c-0.15933,0.3102 -0.14557,0.68099 0.0363,0.97853c0.18187,0.29754 0.5056,0.47886 0.85432,0.4785h32v5c0.00006,0.55226 0.44774,0.99994 1,1h32c0.55226,-0.00006 0.99994,-0.44774 1,-1v-5h21.25c0.36833,-0.00016 0.70675,-0.20277 0.88086,-0.52734l10.75,-20c0.16613,-0.30986 0.15735,-0.6842 -0.02313,-0.98593c-0.18048,-0.30173 -0.50614,-0.48653 -0.85773,-0.48673h-32v-5c-0.00006,-0.55226 -0.44774,-0.99994 -1,-1zM35,34.99219h30v5c0.00006,0.55226 0.44774,0.99994 1,1h31.32813l-9.67578,18h-21.65234c-0.55226,0.00006 -0.99994,0.44774 -1,1v5h-30v-5c-0.00006,-0.55226 -0.44774,-0.99994 -1,-1h-31.36328l9.22461,-18h22.13867c0.55226,-0.00006 0.99994,-0.44774 1,-1zM38.48828,37.98242c-0.27613,0.00003 -0.49997,0.22387 -0.5,0.5l0.01172,5.50977h-7.5c-0.18032,-0.00255 -0.34804,0.09219 -0.43894,0.24794c-0.0909,0.15575 -0.0909,0.34838 0,0.50413c0.0909,0.15575 0.25863,0.25049 0.43894,0.24794h8c0.13294,-0.00001 0.26041,-0.05296 0.35423,-0.14715c0.09382,-0.09419 0.14627,-0.22186 0.14577,-0.3548l-0.00977,-5.50781h22.51953c0.18032,0.00255 0.34804,-0.09219 0.43894,-0.24794c0.0909,-0.15575 0.0909,-0.34838 0,-0.50413c-0.0909,-0.15575 -0.25863,-0.25049 -0.43894,-0.24794zM61.49219,40.98633c-0.13261,0.00207 -0.25897,0.05673 -0.35127,0.15197c-0.0923,0.09523 -0.14299,0.22324 -0.14092,0.35585v2.99805c0.00003,0.27613 0.22387,0.49997 0.5,0.5l2,0.00195c0.18032,0.00255 0.34804,-0.09219 0.43894,-0.24794c0.0909,-0.15575 0.0909,-0.34838 0,-0.50413c-0.0909,-0.15575 -0.25863,-0.25049 -0.43894,-0.24794l-1.5,-0.00195v-2.49805c0.00212,-0.13532 -0.0507,-0.26572 -0.1464,-0.36141c-0.0957,-0.0957 -0.22609,-0.14852 -0.36141,-0.1464zM20.5,43.99219c-0.18298,-0.00034 -0.35153,0.0993 -0.43945,0.25977l-1.0918,2.00195c-0.08958,0.15696 -0.0875,0.35004 0.00544,0.50504c0.09294,0.15499 0.26229,0.24777 0.44294,0.24268c0.18065,-0.00509 0.3445,-0.10727 0.42857,-0.26725l0.95117,-1.74219h6.70313c0.18032,0.00255 0.34804,-0.09219 0.43894,-0.24794c0.0909,-0.15575 0.0909,-0.34838 0,-0.50413c-0.0909,-0.15575 -0.25863,-0.25049 -0.43894,-0.24794zM77.5,43.99219l-11,0.00195c-0.18032,-0.00255 -0.34804,0.09219 -0.43894,0.24794c-0.0909,0.15575 -0.0909,0.34838 0,0.50413c0.0909,0.15575 0.25863,0.25049 0.43894,0.24794l11,-0.00195c0.18032,0.00255 0.34804,-0.09219 0.43894,-0.24794c0.0909,-0.15575 0.0909,-0.34838 0,-0.50413c-0.0909,-0.15575 -0.25863,-0.25049 -0.43894,-0.24794zM80.5,43.99219c-0.18032,-0.00255 -0.34804,0.09219 -0.43894,0.24794c-0.0909,0.15575 -0.0909,0.34838 0,0.50413c0.0909,0.15575 0.25863,0.25049 0.43894,0.24794h6.22266l-4.54492,10h-20.67773c-0.27613,0.00003 -0.49997,0.22387 -0.5,0.5l0.00977,5.50977h-22.02148l0.01172,-5.50977c-0.00003,-0.27613 -0.22387,-0.49997 -0.5,-0.5h-23.1582l3.34766,-6.13672c0.0855,-0.157 0.08074,-0.34769 -0.01249,-0.50023c-0.09323,-0.15254 -0.26076,-0.24375 -0.43948,-0.23927c-0.17872,0.00448 -0.34147,0.10397 -0.42694,0.26099l-3.75,6.875c-0.08492,0.15506 -0.08165,0.34344 0.0086,0.49545c0.09025,0.15202 0.25406,0.24509 0.43085,0.24478h23.49805l-0.00977,5.50977c0.00003,0.27613 0.22387,0.49997 0.5,0.5h23.02149c0.27613,-0.00003 0.49997,-0.22387 0.5,-0.5l-0.00977,-5.50977h20.5c0.196,-0.00003 0.37391,-0.11457 0.45508,-0.29297l5,-11c0.07037,-0.15476 0.05729,-0.33467 -0.03472,-0.47762c-0.09201,-0.14295 -0.25035,-0.22937 -0.42036,-0.22941z"></path></g></g></svg>