<svg xmlns="http://www.w3.org/2000/svg" xmlns:xlink="http://www.w3.org/1999/xlink" viewBox="0,0,255.98956,255.98956" width="100px" height="100px" fill-rule="nonzero"><g fill="none" fill-rule="nonzero" stroke="none" stroke-width="none" stroke-linecap="none" stroke-linejoin="none" stroke-miterlimit="10" stroke-dasharray="" stroke-dashoffset="0" font-family="none" font-weight="none" font-size="none" text-anchor="none" style="mix-blend-mode: normal"><g transform="scale(2.56,2.56)"><ellipse cx="50" cy="48.992" rx="49" ry="20" fill="#e3e2e3" stroke="none" stroke-width="1" stroke-linecap="butt" stroke-linejoin="miter"></ellipse><ellipse cx="50" cy="48.992" rx="45" ry="16" fill="#000000" stroke="none" stroke-width="1" stroke-linecap="butt" stroke-linejoin="miter"></ellipse><ellipse cx="50" cy="48.992" rx="49" ry="20" fill="none" stroke="#1f212b" stroke-width="2" stroke-linecap="round" stroke-linejoin="round"></ellipse><path d="M93.52,52.242c-4.288,7 -22.144,12.25 -43.52,12.25c-24.577,0 -44.5,-6.94 -44.5,-15.5c0,-8.56 19.923,-15.5 44.5,-15.5c9.052,0 17.473,0.941 24.5,2.559" fill="none" stroke="#1f212b" stroke-width="1" stroke-linecap="round" stroke-linejoin="miter"></path><path d="M81.351,37.992c8.121,2.808 13.149,6.7 13.149,11" fill="none" stroke="#1f212b" stroke-width="1" stroke-linecap="round" stroke-linejoin="miter"></path><path d="M74.564,43.742c-0.17,0 -0.256,0.021 -0.336,0.177v0c-0.262,0.503 -3.485,5.668 -4.079,6.597v0c-0.1,0.141 -0.222,0.123 -0.238,-0.04v0c-0.06,-0.552 -0.537,-1.186 -1.289,-1.491v0c-0.571,-0.232 -1.133,-0.275 -1.713,-0.198v0c-1.05,0.141 -1.987,0.696 -2.81,1.321v0c-1.242,0.942 -2.311,2.166 -3.693,3.067v0c-0.754,0.492 -1.787,0.922 -2.477,0.281v0c-0.626,-0.581 -0.556,-1.868 0.401,-2.863v0c0.102,-0.106 0.222,-0.019 0.204,0.075v0c-0.09,0.451 0.021,0.899 0.362,1.214v0c0.418,0.373 1.016,0.417 1.527,0.168v0c0.603,-0.298 0.959,-0.876 1.061,-1.532v0c0.16,-1.016 -0.622,-1.913 -1.602,-1.985v0c-0.795,-0.057 -1.559,0.221 -2.302,0.835v0c-0.371,0.309 -0.584,0.537 -0.907,0.995v0c-0.079,0.111 -0.2,0.123 -0.196,-0.043v0c0.038,-1.302 -0.501,-2.034 -1.578,-2.058v0c-0.835,-0.019 -1.728,0.435 -2.424,0.988v0c-0.762,0.613 -1.429,1.423 -2.143,2.187v0c-0.089,0.094 -0.168,0.09 -0.192,-0.09v0c-0.021,-0.863 -0.237,-1.698 -0.637,-2.292v0c-0.141,-0.207 -0.437,-0.309 -0.688,-0.17v0c-0.115,0.062 -0.516,0.247 -0.809,0.483v0c-0.143,0.119 -0.202,0.292 -0.138,0.515v0c0.385,1.287 0.302,2.752 -0.222,3.989v0c-0.481,1.133 -1.414,2.156 -2.509,2.501v0c-0.722,0.23 -1.474,0.117 -1.938,-0.522v0c-0.637,-0.884 -0.381,-2.42 0.571,-3.696v0c0.841,-1.123 2.053,-1.836 3.265,-2.298v0c0.143,-0.055 0.172,-0.147 0.132,-0.268v0c-0.066,-0.198 -0.172,-0.469 -0.213,-0.594v0c-0.111,-0.296 -0.422,-0.343 -0.803,-0.302v0c-0.88,0.102 -1.674,0.403 -2.458,0.824v0c-2.053,1.099 -3.082,3.227 -3.532,4.366v0c-0.217,0.549 -0.403,0.888 -0.643,1.191v0c-0.322,0.407 -0.729,0.777 -1.474,1.431v0c-0.066,0.058 -0.117,0.183 -0.06,0.3v0c0.077,0.156 0.464,0.703 0.571,0.75v0c0.121,0.058 0.262,-0.023 0.317,-0.064v0c0.52,-0.352 1.142,-0.91 1.448,-1.289v0c0.106,-0.13 0.215,-0.075 0.271,0.123v0c0.285,1.012 1.027,1.842 2.056,2.187v0c1.883,0.635 3.836,-0.285 5.31,-1.885v0c0.937,-1.016 1.274,-1.672 1.634,-2.115v0c0.607,-0.754 1.808,-2.441 3.238,-3.523v0c0.524,-0.401 1.146,-0.705 1.455,-0.503v0c0.251,0.162 0.332,0.541 -0.07,1.27v0c-1.457,2.663 -3.746,5.921 -4.14,6.68v0c-0.072,0.13 -0.011,0.236 0.128,0.236v0c0.763,-0.004 1.519,-0.002 2.211,-0.002v0c0.115,-0.006 0.168,-0.058 0.224,-0.141v0c1.118,-1.749 2.315,-3.549 3.442,-5.272v0c0.064,-0.1 0.121,-0.023 0.124,0.023v0c0.023,0.401 0.123,0.948 0.358,1.306v0c0.426,0.663 1.031,0.948 1.702,0.954v0c0.532,0.006 0.803,-0.075 1.376,-0.288v0c0.469,-0.175 0.846,-0.401 1.133,-0.609v0c0.168,-0.117 0.198,0.079 0.194,0.109v0c-0.258,1.389 0.062,3.037 1.442,3.719v0c1.653,0.814 3.47,-0.332 4.516,-1.365v0c0.102,-0.1 0.211,-0.089 0.222,0.124v0c0.021,0.394 0.202,0.863 0.528,1.193v0c0.875,0.878 2.645,0.53 4.416,-0.843v0c1.139,-0.878 2.33,-2.121 3.406,-3.436v0c0.041,-0.051 0.07,-0.132 -0.011,-0.217v0c-0.164,-0.17 -0.401,-0.368 -0.564,-0.518v0c-0.074,-0.062 -0.183,-0.045 -0.245,0.004v0c-1.103,1.048 -2.096,2.245 -3.532,3.235v0c-0.483,0.337 -1.255,0.611 -1.602,0.141v0c-0.136,-0.183 -0.119,-0.435 0.015,-0.765v0c0.418,-1.042 7.072,-11.508 7.415,-12.103v0c0.06,-0.104 0,-0.179 -0.132,-0.179v0c-0.682,0 -1.576,0.002 -2.286,0.002M64.031,56.514c-0.341,-0.177 -0.488,-0.654 -0.481,-1.037v0c0.017,-1.088 0.498,-2.202 1.389,-3.299v0c1.088,-1.336 2.288,-2.032 3.078,-1.651v0c0.816,0.388 0.554,1.335 0.19,2.075v0c-0.026,0.058 -0.028,0.106 -0.015,0.155v0c0.013,0.077 0.113,0.151 0.211,0.187v0c0.036,0.013 0.055,0.038 0.015,0.119v0c-0.281,0.603 -0.541,0.954 -0.893,1.476v0c-0.324,0.484 -0.69,0.863 -1.135,1.227v0c-0.516,0.426 -1.186,0.882 -1.817,0.882v0c-0.182,0 -0.367,-0.04 -0.542,-0.134" fill="#f5f9fc" stroke="none" stroke-width="1" stroke-linecap="butt" stroke-linejoin="miter"></path><path d="M39.32,38c-0.633,0 -1.267,0.025 -1.908,0.075v0c-4.071,0.343 -7.945,2.637 -7.954,6.115v0c0,1.766 1.252,3.195 3.195,3.133v0c2.285,-0.077 4.16,-1.908 5.142,-4.215v0c0.371,-0.875 -0.319,-1.238 -0.647,-0.735v0c-0.586,0.909 -1.412,1.612 -2.305,2.049v0c-1.074,0.528 -2.224,0.385 -2.571,-0.49v0c-0.49,-1.231 0.528,-3.072 2.852,-3.941v0c3.355,-1.242 6.867,-0.42 10.245,0.215v0c0.049,0 0.228,0.1 0.068,0.183v0c-0.603,0.33 -1.199,0.598 -2.126,1.397v0c-0.667,0.569 -1.536,1.327 -2.211,2.154v0c-0.667,0.814 -1.142,1.542 -1.768,2.345v0c-0.089,0.117 -0.196,0.111 -0.194,0.111v0c-1.529,0.258 -3.025,0.43 -4.396,1.384v0c-0.283,0.196 -0.407,0.543 -0.234,0.809v0c0.155,0.236 0.507,0.26 0.75,0.083v0c0.852,-0.637 1.728,-0.937 2.733,-0.963v0c0.043,0.002 0.064,0.011 0.077,0.036v0c0.011,0.015 0,0.047 -0.015,0.072v0c-1.506,2.089 -1.883,2.56 -3.014,3.855v0c-0.581,0.665 -1.15,1.227 -1.787,1.811v0c-2.571,2.388 -5.336,2.349 -6.328,0.85v0c-0.592,-0.899 -0.515,-1.842 -0.124,-2.626v0c0.477,-0.959 1.444,-1.661 2.247,-2.072v0c0.298,-0.153 0.385,-0.533 0.085,-0.88v0c-0.188,-0.228 -0.65,-0.268 -0.993,-0.205v0c-1.054,0.196 -2.298,0.991 -3.033,1.949v0c-0.827,1.076 -1.242,2.381 -1.103,3.845v0c0.249,2.645 2.426,4.171 4.895,4.154v0c1.966,-0.017 3.819,-0.611 6.047,-2.873v0c2.079,-2.111 3.97,-5.261 5.742,-8.183v0c0.055,-0.094 0.094,-0.145 0.364,-0.177v0c1.11,-0.138 2.752,-0.298 3.804,-0.358v0c0.236,-0.013 0.283,-0.009 0.375,0.107v0c0.275,0.345 0.686,0.639 1.016,0.816v0c0.16,0.089 0.238,0.13 0.364,0.134v0c0.156,0.004 0.277,-0.081 0.354,-0.17v0c0.111,-0.123 0.143,-0.281 0.083,-0.385v0c-0.062,-0.107 -0.797,-0.515 -0.82,-0.679v0c-0.017,-0.104 0.096,-0.128 0.096,-0.128v0c0.539,-0.17 1.101,-0.516 1.44,-1.169v0c0.334,-0.641 0.388,-1.499 -0.224,-1.974v0c-0.535,-0.417 -1.346,-0.351 -1.992,0.228v0c-0.631,0.564 -0.843,1.384 -0.756,2.102v0c0.015,0.124 0.011,0.168 -0.162,0.181v0c-0.973,0.077 -1.909,0.104 -2.952,0.158v0c-0.07,0.006 -0.09,-0.041 -0.051,-0.09v0c1.199,-2.085 2.991,-3.568 4.971,-5.029v0c0.13,-0.098 0.09,-0.285 0.085,-0.441v0c3.578,0.777 7.033,2.224 10.746,2.192v0c1.534,-0.013 3.003,-0.245 4.405,-1.016v0c1.235,-0.675 1.903,-1.25 1.939,-1.896v0c0.03,-0.449 -0.281,-0.729 -0.724,-0.635v0c-3.749,0.861 -7.49,0.805 -11.223,0.354v0c-4.232,-0.511 -8.293,-1.567 -12.504,-1.567v0c0,0 0,0 -0.011,0M45.779,45.513c-0.055,-0.396 0.075,-0.927 0.498,-1.302v0c0.211,-0.188 0.5,-0.232 0.677,-0.081v0c0.198,0.17 0.104,0.59 -0.096,0.882v0c-0.217,0.322 -0.588,0.599 -0.926,0.667v0c-0.011,0.002 -0.019,0.004 -0.028,0.004v0c-0.053,-0.002 -0.1,-0.041 -0.125,-0.17" fill="#f5f9fc" stroke="none" stroke-width="1" stroke-linecap="butt" stroke-linejoin="miter"></path></g></g></svg>